<svg xmlns="http://www.w3.org/2000/svg" width="500" height="500" viewBox="0 0 500 500"><path fill="#F8F8F7" d="M0 0h500v500H0z"/><path fill="#6CBCF3" d="m223.863 55.974.362.309c.122 2.383-.129 4.78-.102 7.167a68.8 68.8 0 0 0 2.053 16.283c4.398 17.357 14.269 33.734 24.334 48.356 7.018 10.197 14.407 20.091 21.789 30.025 22.247 29.941 45.469 62.942 42.331 102.187-1.727 21.612-11.897 38.854-28.204 52.72 1.268-2.452 1.78-4.763 2.32-7.467.409-2.216.819-4.42 1.07-6.661 3.806-34.011-23.942-66.693-46.189-89.418-12.06-12.321-25.296-24-36.07-37.478-12.442-15.564-20.006-32.67-17.679-53.031 2.604-22.78 16.012-48.668 33.985-62.992"/><path fill="#6CBCF3" d="m221.069 204.946.17.129c.568.985.226 7.206.497 9.085.862 5.981 2.994 12.1 5.659 17.503a133 133 0 0 0 10.162 17.458c16.181 23.657 41.733 49.485 40.574 80.095-.565 14.917-6.772 25.51-17.456 35.459q.634-2.23 1.193-4.481c.266-1.581.499-3.16.634-4.758 1.846-21.989-15.72-41.829-30.084-56.458-6.699-6.823-13.886-13.342-20.071-20.639-8.041-9.487-13.377-20.606-12.28-33.333 1.261-14.617 9.834-30.675 21.002-40.06"/><path fill="#2C2B2B" d="M335.43 388.504c12.532-1.707 24.091 7.028 25.868 19.551s-6.894 24.13-19.407 25.977c-12.612 1.862-24.331-6.893-26.122-19.515s7.029-24.292 19.661-26.013"/><path fill="#F8F8F7" d="M337.376 397.082c3.41-.26 6.924.563 9.658 2.679 3.029 2.344 4.487 5.819 4.88 9.534.443 4.183-.447 8.689-3.207 11.966-2.378 2.821-5.489 4.074-9.07 4.396-3.207.208-6.402-.439-9.033-2.374-3.108-2.287-5.055-6.062-5.544-9.853-.525-4.071.426-8.485 3.019-11.721 2.479-3.095 5.516-4.149 9.297-4.627"/><path fill="#2C2B2B" d="M153.714 389.029c6.239.249 16.722-1.051 22.357 1.007 3.026 1.105 5.51 3.127 6.814 6.115 1.397 3.205 1.663 7.768.326 11.012-1.517 3.681-4.929 5.135-8.347 6.579 1.626 2.134 3.043 4.512 4.538 6.745q4.36 6.453 8.623 12.971a525 525 0 0 1-11.011-.004c-1.248-2.618-10.486-18.736-11.672-19.309-.691-.035-1.552-.211-2.161.168-.756 2.788-.206 15.417-.187 19.169l-9.429.002c.4-4.797.112-9.798.11-14.621-.004-9.943-.079-19.892.039-29.834"/><path fill="#F8F8F7" d="M162.983 396.663c3.204-.005 8.358-.537 10.907 1.705.995.875 1.451 2.103 1.503 3.408.061 1.516-.415 2.738-1.404 3.861-3.201 2.312-7.269 1.773-10.998 1.707z"/><path fill="#2C2B2B" d="M114.715 388.599c3.624-.348 7.362-.145 10.818 1.065 6.424 2.247 10.158 6.276 13.031 12.298-2.829.938-5.91 1.914-8.577 3.221-.76-1.57-1.602-3.042-2.8-4.323-2.417-2.585-5.69-3.714-9.157-3.83-3.684-.124-7.394.959-10.084 3.574-2.783 2.705-3.881 6.55-3.961 10.337-.085 4.011 1.106 8.179 4.013 11.06 2.657 2.633 6.245 3.78 9.928 3.698 3.989-.089 7.048-1.663 9.758-4.542.857-1.067 1.498-2.329 2.249-3.476 2.97.726 5.785 2.12 8.723 3.001-.801 1.639-1.628 3.228-2.717 4.698-3.613 4.879-8.777 7.625-14.745 8.495-6.062.884-12.98-.441-17.919-4.193-4.728-3.591-7.6-9.019-8.33-14.87-.81-6.509.635-13.248 4.777-18.429 3.72-4.653 9.159-7.147 14.993-7.784"/><path fill="#2C2B2B" d="M241.761 388.582c4.142-.476 8.56-.043 12.334 1.801 4.284 2.093 6.476 5.264 8 9.648-2.503.611-5.608 1.97-8.152 2.053-.106.003-.583-.006-.646-.038-.102-.051-2.094-3.644-2.696-4.208-1.567-1.468-3.682-2.087-5.801-1.913-1.958.161-4.549.938-5.813 2.525-.669.842-1.016 2.01-.853 3.08.634 4.16 11.009 6.156 14.424 7.447 1.921.727 3.813 1.652 5.42 2.945 2.456 1.975 4.033 4.669 4.291 7.836a13 13 0 0 1-3.133 9.552c-2.937 3.382-8.076 4.49-12.325 4.826-3.925.561-9.381-.827-12.748-2.872-3.786-2.299-5.822-5.813-6.839-10.034q4.738-1.11 9.508-2.071c.448 2.047 1.262 3.97 2.845 5.402 1.96 1.772 5.147 2.22 7.713 1.999 1.763-.151 3.39-.778 4.529-2.184.852-1.053.987-2.497.779-3.796-.759-4.75-8.663-5.965-12.499-7.281-2.297-.788-4.624-1.742-6.629-3.134-2.323-1.612-3.955-3.829-4.415-6.656-.481-2.958.165-6.795 1.961-9.251 2.554-3.495 6.62-5.054 10.745-5.676"/><path fill="#2C2B2B" d="M388.335 388.572c4.06-.222 7.883-.145 11.673 1.504 4.681 2.036 6.822 5.352 8.624 9.998-3.032.656-6.03 1.543-9.043 2.29-.274-1.349-.587-2.556-1.53-3.605-1.66-1.848-4.011-2.701-6.453-2.791-1.917-.07-3.981.285-5.405 1.67-.868.843-1.794 2.608-1.609 3.849.632 4.252 10.826 6.091 14.336 7.402 2.021.755 3.993 1.73 5.671 3.1 2.404 1.961 3.829 4.407 4.102 7.522.308 3.517-.722 7.04-3.07 9.715-2.96 3.373-7.77 4.575-12.069 4.929-4.225.256-8.88-.63-12.586-2.715-4.162-2.341-6.09-5.835-7.338-10.291 3.229-.552 6.441-1.267 9.636-1.988.491 2.283 1.347 4.262 3.228 5.757 1.911 1.518 5.226 1.897 7.601 1.59 1.495-.194 3.209-.795 4.142-2.046.817-1.093 1.195-2.741.929-4.082-.9-4.518-9.186-5.858-12.854-7.139-2.254-.788-4.529-1.788-6.479-3.182-2.257-1.614-3.896-3.862-4.278-6.653-.471-3.432.238-6.849 2.39-9.61 2.544-3.263 6.418-4.699 10.382-5.224"/><path fill="#2C2B2B" d="m273.819 389.051 30.46-.036-.016 8.287h-10.655l-.003 25.573-.032 10.609-9.092.005c.133-12.059.021-24.133.029-36.194l-10.736-.033z"/><path fill="#2C2B2B" d="M202.541 389.024c3.063.066 6.139 0 9.203-.006l.026 44.459-9.277.008z"/></svg>